<svg width="9" height="15" viewBox="0 0 9 15" fill="none" xmlns="http://www.w3.org/2000/svg">
<path d="M1.75102 14.0664C1.40838 14.0663 1.07329 13.9657 0.787241 13.7771C0.501195 13.5885 0.276761 13.3201 0.141733 13.0052C0.0067047 12.6902 -0.032986 12.3426 0.0275754 12.0054C0.0881368 11.6681 0.246289 11.3561 0.482449 11.1078L4.40102 6.98638L0.492449 2.89495C0.199691 2.55533 0.0483425 2.11635 0.069582 1.66847C0.0908216 1.22058 0.283032 0.797897 0.606615 0.487499C0.930199 0.1771 1.36051 0.00262912 1.80889 2.94719e-05C2.25727 -0.00257017 2.68957 0.1669 3.01674 0.473525L8.08531 5.7721C8.39554 6.098 8.56857 6.53072 8.56857 6.98067C8.56857 7.43062 8.39554 7.86334 8.08531 8.18924L3.02102 13.5221C2.85736 13.6943 2.66035 13.8313 2.44201 13.9249C2.22367 14.0185 1.98857 14.0666 1.75102 14.0664Z" fill="black"/>
</svg>
