<svg width="68" height="74" viewBox="0 0 68 74" fill="none" xmlns="http://www.w3.org/2000/svg">
<path d="M33.5813 73.4602C52.1278 73.4602 67.1627 58.734 67.1627 40.5683C67.1627 22.4026 52.1278 7.67639 33.5813 7.67639C15.0349 7.67639 0 22.4026 0 40.5683C0 58.734 15.0349 73.4602 33.5813 73.4602Z" fill="#6A5750"/>
<path d="M48.3419 26.4713C50.176 26.4713 51.6628 25.015 51.6628 23.2185C51.6628 21.4221 50.176 19.9658 48.3419 19.9658C46.5078 19.9658 45.021 21.4221 45.021 23.2185C45.021 25.015 46.5078 26.4713 48.3419 26.4713Z" fill="#FFCDB1"/>
<path d="M19.5582 26.4713C21.3923 26.4713 22.8791 25.015 22.8791 23.2185C22.8791 21.4221 21.3923 19.9658 19.5582 19.9658C17.7241 19.9658 16.2373 21.4221 16.2373 23.2185C16.2373 25.015 17.7241 26.4713 19.5582 26.4713Z" fill="#FFCDB1"/>
<path d="M33.7659 51.5186L25.8555 42.2181V32.9175H41.6808V42.2181L33.7659 51.5186Z" fill="#FFBC98"/>
<path d="M48.012 14.3164C48.012 2.53569 19.5254 6.56833 19.5254 14.3164V25.1673C19.5254 28.8673 21.026 32.4158 23.6972 35.0321C26.3683 37.6483 29.9911 39.1182 33.7687 39.1182C37.5462 39.1182 41.1691 37.6483 43.8402 35.0321C46.5113 32.4158 48.012 28.8673 48.012 25.1673V14.3164Z" fill="#FFCDB1"/>
<path d="M17.9429 17.4163C17.9429 7.96075 23.9295 0 33.5824 0H35.8213L37.6869 0.365474C46.6421 2.55832 49.5944 11.2157 49.5944 17.4163V59.2068L46.4294 47.5116V44.0776L41.4183 42.395V36.9129C43.8063 35.451 45.8785 32.6491 46.4294 31.5167V15.8652L40.0988 9.66459L21.1078 15.8652L21.3811 32.0502C21.5925 32.5747 22.8362 34.2815 26.1198 36.9129V42.395L21.5754 43.5612L21.6421 47.5116L17.9429 59.2068V17.4163Z" fill="#B3E3FF"/>
<mask id="mask0_547_4306" style="mask-type:luminance" maskUnits="userSpaceOnUse" x="0" y="8" width="68" height="66">
<path d="M33.8353 73.7838C52.3817 73.7838 67.4166 59.0576 67.4166 40.8919C67.4166 22.7262 52.3817 8 33.8353 8C15.2888 8 0.253906 22.7262 0.253906 40.8919C0.253906 59.0576 15.2888 73.7838 33.8353 73.7838Z" fill="white"/>
</mask>
<g mask="url(#mask0_547_4306)">
<path d="M41.6816 42.2174C39.1866 43.277 36.4903 43.8055 33.7711 43.7677C31.0502 43.8062 28.3521 43.2777 25.8555 42.2174C25.8555 42.2174 8.44727 45.3174 8.44727 62.3682L35.6988 91.4796L59.0898 62.3682C59.0898 45.3174 41.6816 42.2174 41.6816 42.2174Z" fill="#DDABFA"/>
</g>
</svg>
