<svg width="30" height="30" viewBox="0 0 30 30" fill="none" xmlns="http://www.w3.org/2000/svg">
<path d="M15.335 7.5C17.4616 7.5 17.7282 7.50906 18.5664 7.54883C19.3989 7.58555 19.9689 7.72028 20.4678 7.91309C20.9818 8.11201 21.419 8.3819 21.8535 8.81641C22.2911 9.25098 22.5582 9.68872 22.751 10.209C22.9437 10.7047 23.0775 11.2772 23.1143 12.1094C23.151 12.9447 23.1602 13.2111 23.1602 15.3379C23.1602 17.4647 23.151 17.7311 23.1143 18.5664C23.0775 19.3985 22.9437 19.9681 22.751 20.4668C22.5521 20.9809 22.2822 21.4189 21.8477 21.8535C21.4131 22.2881 20.9751 22.5579 20.4609 22.7568C19.9652 22.9496 19.3928 23.0844 18.5605 23.1211C17.7252 23.1578 17.4588 23.167 15.332 23.167C13.2054 23.167 12.9387 23.1578 12.1035 23.1211C11.2711 23.0844 10.701 22.9496 10.2021 22.7568C9.68811 22.5579 9.25091 22.288 8.81641 21.8535C8.37876 21.4189 8.11215 20.9811 7.91016 20.4639C7.71741 19.9681 7.58262 19.3957 7.5459 18.5635C7.50918 17.7281 7.5 17.4617 7.5 15.335C7.5 13.2079 7.50917 12.9411 7.5459 12.1025C7.58265 11.2703 7.71738 10.7009 7.91016 10.2021C8.11213 9.6881 8.37885 9.25092 8.81641 8.81641C9.25099 8.37876 9.68883 8.11215 10.2061 7.91016C10.7018 7.71742 11.2742 7.58262 12.1064 7.5459C12.9417 7.50918 13.2082 7.5 15.335 7.5ZM15.335 11.3105C13.1131 11.3105 11.3105 13.1131 11.3105 15.335C11.3107 17.5567 13.1132 19.3594 15.335 19.3594C17.5568 19.3594 19.3592 17.5567 19.3594 15.335C19.3594 13.1131 17.5569 11.3106 15.335 11.3105ZM15.335 12.7236C16.7764 12.7236 17.9453 13.8935 17.9453 15.335C17.9451 16.7763 16.7763 17.9453 15.335 17.9453C13.8936 17.9453 12.7248 16.7763 12.7246 15.335C12.7246 13.8935 13.8935 12.7236 15.335 12.7236ZM19.5186 10.2168C19.0014 10.2169 18.5791 10.636 18.5791 11.1562C18.5793 11.6733 18.9984 12.0956 19.5186 12.0957C20.0357 12.0957 20.4578 11.6764 20.458 11.1562C20.458 10.639 20.0358 10.2168 19.5186 10.2168Z" fill="white"/>
</svg>
