<svg width="30" height="30" viewBox="0 0 30 30" fill="none" xmlns="http://www.w3.org/2000/svg">
<path d="M21.3927 7.5H8.60729C8.31362 7.5 8.03198 7.61666 7.82432 7.82432C7.61666 8.03198 7.5 8.31362 7.5 8.60729V21.3927C7.5 21.6864 7.61666 21.968 7.82432 22.1757C8.03198 22.3833 8.31362 22.5 8.60729 22.5H21.3927C21.6864 22.5 21.968 22.3833 22.1757 22.1757C22.3833 21.968 22.5 21.6864 22.5 21.3927V8.60729C22.5 8.31362 22.3833 8.03198 22.1757 7.82432C21.968 7.61666 21.6864 7.5 21.3927 7.5ZM11.9708 20.2781H9.71563V13.1146H11.9708V20.2781ZM10.8417 12.1219C10.5859 12.1204 10.3362 12.0432 10.1242 11.9001C9.91222 11.7569 9.7474 11.5541 9.65055 11.3173C9.5537 11.0805 9.52915 10.8204 9.58002 10.5697C9.63088 10.3189 9.75488 10.0889 9.93635 9.90861C10.1178 9.7283 10.3486 9.60579 10.5997 9.55654C10.8507 9.50728 11.1107 9.5335 11.3468 9.63187C11.583 9.73024 11.7847 9.89635 11.9265 10.1093C12.0684 10.3222 12.144 10.5723 12.1438 10.8281C12.1462 10.9994 12.1141 11.1694 12.0494 11.328C11.9847 11.4866 11.8887 11.6306 11.7672 11.7513C11.6457 11.872 11.5012 11.9671 11.3421 12.0307C11.1831 12.0944 11.0129 12.1254 10.8417 12.1219ZM20.2833 20.2844H18.0292V16.3708C18.0292 15.2167 17.5385 14.8604 16.9052 14.8604C16.2365 14.8604 15.5802 15.3646 15.5802 16.4V20.2844H13.325V13.1198H15.4938V14.1125H15.5229C15.7406 13.6719 16.5031 12.9188 17.6667 12.9188C18.925 12.9188 20.2844 13.6656 20.2844 15.8531L20.2833 20.2844Z" fill="white"/>
</svg>
