<svg width="22" height="16" viewBox="0 0 22 16" fill="none" xmlns="http://www.w3.org/2000/svg">
<path d="M19.7099 0H2.29394C1.6592 0.0295953 1.06194 0.309087 0.632527 0.777467C0.203116 1.24585 -0.0235728 1.86508 0.00194247 2.5V13.5C-0.0235728 14.1349 0.203116 14.7542 0.632527 15.2225C1.06194 15.6909 1.6592 15.9704 2.29394 16H19.7099C20.3447 15.9704 20.9419 15.6909 21.3714 15.2225C21.8008 14.7542 22.0275 14.1349 22.0019 13.5V2.5C22.0275 1.86508 21.8008 1.24585 21.3714 0.777467C20.9419 0.309087 20.3447 0.0295953 19.7099 0ZM20.1679 5.41L12.2749 9.91C11.8864 10.1297 11.4483 10.2467 11.0019 10.25C10.5554 10.2457 10.1172 10.1288 9.72794 9.91L1.83494 5.41V3.15L10.5709 8.13C10.7026 8.20384 10.851 8.24263 11.0019 8.24263C11.1529 8.24263 11.3013 8.20384 11.4329 8.13L20.1689 3.15L20.1679 5.41Z" fill="#FFA101"/>
</svg>
