<svg width="90" height="100" viewBox="0 0 90 100" fill="none" xmlns="http://www.w3.org/2000/svg">
<path d="M44.999 100C69.8513 100 89.998 79.8533 89.998 55.001C89.998 30.1488 69.8513 10.002 44.999 10.002C20.1467 10.002 0 30.1488 0 55.001C0 79.8533 20.1467 100 44.999 100Z" fill="#6A5750"/>
<path d="M64.7779 35.715C67.2355 35.715 69.2279 33.7227 69.2279 31.265C69.2279 28.8073 67.2355 26.815 64.7779 26.815C62.3202 26.815 60.3279 28.8073 60.3279 31.265C60.3279 33.7227 62.3202 35.715 64.7779 35.715Z" fill="#D98F67"/>
<path d="M26.2081 35.715C28.6657 35.715 30.6581 33.7227 30.6581 31.265C30.6581 28.8073 28.6657 26.815 26.2081 26.815C23.7504 26.815 21.7581 28.8073 21.7581 31.265C21.7581 33.7227 23.7504 35.715 26.2081 35.715Z" fill="#D98F67"/>
<path d="M45.246 69.982L34.646 57.258V44.534H55.852V57.258L45.246 69.982Z" fill="#D98F67"/>
<path d="M64.3361 19.086C64.3361 2.969 26.1641 8.486 26.1641 19.086V33.931C26.1641 38.9929 28.1749 43.8475 31.7542 47.4268C35.3335 51.0062 40.1881 53.017 45.2501 53.017C50.312 53.017 55.1666 51.0062 58.7459 47.4268C62.3252 43.8475 64.3361 38.9929 64.3361 33.931V19.086Z" fill="#E59E76"/>
<path d="M45.249 0C32.314 0 24.043 10.391 24.043 23.327V28.2L28.284 31.805V21.205L53.732 12.722L62.215 21.205V31.805L66.456 28.2V23.327C66.456 14.844 64.335 6.362 53.732 4.241L51.611 0H45.249Z" fill="#000001"/>
<mask id="mask0_451_3048" style="mask-type:luminance" maskUnits="userSpaceOnUse" x="0" y="10" width="90" height="90">
<path d="M44.999 100C69.8513 100 89.998 79.8533 89.998 55.001C89.998 30.1488 69.8513 10.002 44.999 10.002C20.1467 10.002 0 30.1488 0 55.001C0 79.8533 20.1467 100 44.999 100Z" fill="white"/>
</mask>
<g mask="url(#mask0_451_3048)">
<path d="M55.8531 57.257C52.5098 58.7067 48.8968 59.4296 45.2531 59.378C41.6071 59.4306 37.9915 58.7076 34.6461 57.257C34.6461 57.257 11.3191 61.498 11.3191 84.825L47.8361 124.652L79.1801 84.825C79.1801 61.498 55.8531 57.257 55.8531 57.257Z" fill="#CEE3F6"/>
</g>
</svg>
