<svg width="26" height="26" viewBox="0 0 26 26" fill="none" xmlns="http://www.w3.org/2000/svg">
<path d="M13.0432 2.16656C7.1282 2.16656 2.30737 6.9874 2.30737 12.9024C2.30737 14.7982 2.8057 16.6399 3.73737 18.2649L2.2207 23.8332L7.9082 22.3382C9.47904 23.1941 11.2449 23.6491 13.0432 23.6491C18.9582 23.6491 23.779 18.8282 23.779 12.9132C23.779 10.0424 22.6632 7.3449 20.6374 5.31906C19.644 4.31601 18.461 3.52069 17.1572 2.97945C15.8534 2.43822 14.4549 2.16189 13.0432 2.16656ZM13.054 3.97573C15.4374 3.97573 17.669 4.9074 19.359 6.5974C20.1882 7.42671 20.8456 8.41145 21.2936 9.49522C21.7416 10.579 21.9714 11.7405 21.9699 12.9132C21.9699 17.8316 17.9615 21.8291 13.0432 21.8291C11.4399 21.8291 9.86904 21.4066 8.50404 20.5832L8.17904 20.3991L4.79904 21.2874L5.6982 17.9941L5.48154 17.6474C4.58729 16.2265 4.11401 14.5813 4.11654 12.9024C4.12737 7.98406 8.12487 3.97573 13.054 3.97573ZM9.2407 7.94073C9.06737 7.94073 8.77487 8.00573 8.5257 8.27656C8.28737 8.5474 7.5832 9.20823 7.5832 10.5191C7.5832 11.8407 8.54737 13.1082 8.66654 13.2924C8.8182 13.4766 10.5732 16.1849 13.2707 17.3332C13.9099 17.6257 14.4082 17.7882 14.7982 17.9074C15.4374 18.1132 16.0224 18.0807 16.4882 18.0157C17.0082 17.9399 18.0699 17.3657 18.2974 16.7374C18.5249 16.1091 18.5249 15.5782 18.4599 15.4591C18.384 15.3507 18.2107 15.2857 17.9399 15.1666C17.669 15.0149 16.3474 14.3649 16.109 14.2782C15.8599 14.1916 15.7082 14.1482 15.5024 14.4082C15.329 14.6791 14.809 15.2857 14.6574 15.4591C14.4949 15.6432 14.3432 15.6649 14.0832 15.5349C13.8015 15.3941 12.9349 15.1124 11.9165 14.2024C11.1149 13.4874 10.584 12.6099 10.4215 12.3391C10.2915 12.0791 10.4107 11.9166 10.5407 11.7974C10.6599 11.6782 10.8332 11.4832 10.9415 11.3207C11.0824 11.1691 11.1257 11.0499 11.2124 10.8766C11.299 10.6924 11.2557 10.5407 11.1907 10.4107C11.1257 10.2916 10.584 8.94823 10.3565 8.4174C10.1399 7.8974 9.9232 7.9624 9.74987 7.95156C9.5982 7.95156 9.42487 7.94073 9.2407 7.94073Z" fill="black"/>
</svg>
